<svg width="256" height="256" viewBox="0 0 256 256" fill="none" xmlns="http://www.w3.org/2000/svg">
<mask id="mask0_18_27" style="mask-type:luminance" maskUnits="userSpaceOnUse" x="62" y="42" width="141" height="172">
<path d="M62.976 42.3081H202.411V213.163H62.976V42.3081Z" fill="white"/>
</mask>
<g mask="url(#mask0_18_27)">
<path d="M188.33 160.61C175.534 155.507 169.348 159.837 156.86 153.265C150.327 149.824 153.342 144.759 158.136 147.891C164.09 151.795 172.48 153.071 179.554 152.337C189.877 151.255 202.364 142.903 199.31 129.681C196.217 116.382 183.691 114.449 184.194 92.2194C184.194 66.7028 191.771 64.3834 194.362 44.4341C194.516 43.3128 193.627 42.3081 192.467 42.3081H162.118C160.262 42.3081 159.49 44.7048 161.036 45.7874C168.73 51.2774 174.219 59.1641 175.572 65.7754C175.727 66.5481 175.147 67.2441 174.374 67.2828C173.871 67.3214 173.368 67.0121 173.176 66.5481C164.476 48.8801 140.159 44.6274 128.212 44.6274C88.7783 44.6274 71.1103 67.8241 71.1103 92.2194C71.1103 116.614 96.4337 136.37 127.633 136.37C145.804 136.37 161.964 129.681 172.286 119.282C173.987 117.581 176.964 118.547 177.196 120.944C178.162 130.3 173.794 140.545 156.28 137.337C138.767 134.127 132.697 150.945 140.623 159.064C149.67 168.265 166.332 172.518 175.34 172.402C181.14 172.325 180.096 176.925 174.49 177.273C144.412 177.273 134.824 150.52 101.73 150.52C53.6357 150.52 55.3757 203.408 79.6543 212.88C81.7423 213.692 84.0617 212.261 84.255 210.058C84.8737 202.828 92.0263 188.523 107.413 188.523C132.697 188.523 146.074 210.367 170.856 210.367C196.024 210.367 202.326 194.864 202.326 183.381C202.364 178.935 202.364 166.216 188.33 160.61ZM127.826 95.9694C107.374 95.9694 91.9103 88.4301 91.9103 79.1134C91.9103 69.7961 107.374 62.2568 127.826 62.2568C148.278 62.2568 163.742 69.7961 163.742 79.1134C163.742 88.4301 148.278 95.9694 127.826 95.9694Z" fill="white"/>
</g>
</svg>
