<svg width="255" height="255" viewBox="0 0 255 255" fill="none" xmlns="http://www.w3.org/2000/svg">
<mask id="mask0_18_20" style="mask-type:luminance" maskUnits="userSpaceOnUse" x="62" y="42" width="140" height="171">
<path d="M62.73 42.1427H201.62V212.33H62.73V42.1427Z" fill="white"/>
</mask>
<g mask="url(#mask0_18_20)">
<path d="M187.594 159.983C174.848 154.9 168.686 159.213 156.247 152.666C149.739 149.239 152.743 144.194 157.518 147.313C163.449 151.202 171.806 152.473 178.853 151.742C189.135 150.664 201.574 142.345 198.531 129.175C195.45 115.927 182.973 114.002 183.474 91.8591C183.474 66.4421 191.022 64.1318 193.602 44.2604C193.756 43.1434 192.87 42.1427 191.715 42.1427H161.485C159.636 42.1427 158.866 44.53 160.406 45.6084C168.07 51.077 173.538 58.9329 174.886 65.5184C175.04 66.288 174.463 66.9813 173.692 67.0198C173.191 67.0583 172.691 66.7502 172.499 66.288C163.834 48.689 139.611 44.453 127.711 44.453C88.4312 44.453 70.8322 67.559 70.8322 91.8591C70.8322 116.158 96.0566 135.837 127.134 135.837C145.234 135.837 161.331 129.175 171.613 118.816C173.307 117.121 176.273 118.084 176.504 120.472C177.466 129.791 173.114 139.996 155.67 136.8C138.225 133.603 132.178 150.356 140.073 158.443C149.085 167.608 165.682 171.844 174.655 171.729C180.432 171.651 179.392 176.234 173.808 176.581C143.847 176.581 134.297 149.932 101.332 149.932C53.4258 149.932 55.159 202.613 79.3428 212.048C81.4227 212.857 83.733 211.432 83.9255 209.237C84.5418 202.036 91.6665 187.787 106.993 187.787C132.178 187.787 145.503 209.545 170.188 209.545C195.258 209.545 201.535 194.103 201.535 182.665C201.574 178.236 201.574 165.567 187.594 159.983ZM127.327 95.5944C106.955 95.5944 91.551 88.0845 91.551 78.8043C91.551 69.5233 106.955 62.0134 127.327 62.0134C147.698 62.0134 163.102 69.5233 163.102 78.8043C163.102 88.0845 147.698 95.5944 127.327 95.5944Z" fill="black"/>
</g>
</svg>
